<svg width="30" height="41" viewBox="0 0 30 41" fill="none" xmlns="http://www.w3.org/2000/svg">
<g clip-path="url(#clip0_102_529)">
<path d="M21.2687 5.73021H8.10625C3.63625 5.73021 0 9.36709 0 13.8365V26.999C0 31.4677 3.63625 35.1052 8.10625 35.1052H21.2687C25.7375 35.1052 29.375 31.4677 29.375 26.999V13.8365C29.375 9.36771 25.7375 5.73021 21.2687 5.73021ZM26.7688 26.999C26.7688 30.0315 24.3012 32.499 21.2687 32.499H8.10625C5.07375 32.499 2.60625 30.0315 2.60625 26.999V13.8365C2.60625 10.804 5.07375 8.33646 8.10625 8.33646H21.2687C24.3012 8.33646 26.7688 10.804 26.7688 13.8365V26.999Z" fill="#717171"/>
<path d="M14.6879 12.849C10.5141 12.849 7.11914 16.2446 7.11914 20.4177C7.11914 24.5915 10.5141 27.9865 14.6879 27.9865C18.8616 27.9865 22.2566 24.5915 22.2566 20.4177C22.2566 16.2446 18.8616 12.849 14.6879 12.849ZM14.6879 25.3802C11.9516 25.3802 9.72539 23.154 9.72539 20.4177C9.72539 17.6815 11.951 15.4552 14.6879 15.4552C17.4241 15.4552 19.6504 17.6815 19.6504 20.4177C19.6504 23.154 17.4241 25.3802 14.6879 25.3802ZM22.5741 10.639C22.068 10.6401 21.5827 10.8411 21.2241 11.1983C20.8659 11.5572 20.6642 12.0432 20.6629 12.5502C20.6629 13.0527 20.8679 13.5458 21.2241 13.9021C21.5832 14.2587 22.0681 14.4596 22.5741 14.4615C23.0785 14.4615 23.5698 14.2565 23.926 13.9021C24.2823 13.5458 24.4854 13.0521 24.4854 12.5502C24.4854 12.0465 24.2823 11.5527 23.926 11.1983C23.5669 10.8407 23.0809 10.6396 22.5741 10.639Z" fill="#717171"/>
</g>
<defs>
<clipPath id="clip0_102_529">
<rect width="30" height="30" fill="white" transform="translate(0 5.73021)"/>
</clipPath>
</defs>
</svg>
