<svg width="100" height="100" viewBox="0 0 100 100" fill="none" xmlns="http://www.w3.org/2000/svg">
<path d="M79.3753 20.4583C75.5553 16.5996 71.0053 13.5402 65.9905 11.4585C60.9757 9.37673 55.5966 8.31434 50.167 8.33326C27.417 8.33326 8.87533 26.8749 8.87533 49.6249C8.87533 56.9166 10.792 63.9999 14.3753 70.2499L8.54199 91.6666L30.417 85.9166C36.4587 89.2083 43.2503 90.9583 50.167 90.9583C72.917 90.9583 91.4587 72.4166 91.4587 49.6666C91.4587 38.6249 87.167 28.2499 79.3753 20.4583ZM50.167 83.9582C44.0003 83.9582 37.9587 82.2916 32.667 79.1666L31.417 78.4166L18.417 81.8332L21.8753 69.1666L21.042 67.8749C17.6159 62.404 15.7967 56.0801 15.792 49.6249C15.792 30.7083 31.2087 15.2916 50.1253 15.2916C59.292 15.2916 67.917 18.8749 74.3753 25.3749C77.5732 28.5581 80.1074 32.3443 81.8311 36.5142C83.5549 40.684 84.4338 45.1545 84.417 49.6666C84.5003 68.5833 69.0837 83.9582 50.167 83.9582ZM69.0003 58.2916C67.9587 57.7916 62.8753 55.2916 61.9587 54.9166C61.0003 54.5833 60.3337 54.4166 59.6253 55.4166C58.917 56.4583 56.9587 58.7916 56.3753 59.4583C55.792 60.1666 55.167 60.2499 54.1253 59.7083C53.0837 59.2083 49.7503 58.0833 45.8337 54.5833C42.7503 51.8333 40.7087 48.4583 40.0837 47.4166C39.5003 46.3749 40.0003 45.8333 40.542 45.2916C41.0003 44.8333 41.5837 44.0833 42.0837 43.4999C42.5837 42.9166 42.792 42.4583 43.1253 41.7916C43.4587 41.0833 43.292 40.4999 43.042 39.9999C42.792 39.4999 40.7087 34.4166 39.8753 32.3333C39.042 30.3333 38.167 30.5833 37.542 30.5416H35.542C34.8337 30.5416 33.7503 30.7916 32.792 31.8333C31.8753 32.8749 29.2087 35.3749 29.2087 40.4583C29.2087 45.5416 32.917 50.4583 33.417 51.1249C33.917 51.8333 40.7087 62.2499 51.042 66.7083C53.5003 67.7916 55.417 68.4166 56.917 68.8749C59.3753 69.6666 61.6253 69.5416 63.417 69.2916C65.417 68.9999 69.542 66.7916 70.3753 64.3749C71.2503 61.9583 71.2503 59.9166 70.9587 59.4583C70.667 58.9999 70.042 58.7916 69.0003 58.2916Z" fill="#777777"/>
</svg>
